<?xml version="1.0" encoding="iso-8859-1"?>
<!-- Generator: Adobe Illustrator 18.0.0, SVG Export Plug-In . SVG Version: 6.00 Build 0)  -->
<!DOCTYPE svg PUBLIC "-//W3C//DTD SVG 1.1//EN" "http://www.w3.org/Graphics/SVG/1.1/DTD/svg11.dtd">
<svg version="1.1" id="Capa_1" xmlns="http://www.w3.org/2000/svg" xmlns:xlink="http://www.w3.org/1999/xlink" x="0px" y="0px"
	 viewBox="0 0 453.23 453.23" style="enable-background:new 0 0 453.23 453.23;" xml:space="preserve">
<g>
	<g>
		<path style="fill:#F9E17A;" d="M311.603,209.944c0.966,5.048,1.546,10.198,1.555,15.33c0.01,5.864-0.648,12.542-4.294,17.385
			c-1.175,1.585-2.764,3.124-4.754,4.186c-1.906,0.891-3.853,1.475-5.95,1.653c-9.718,0.827-17.754-6.187-23.668-13.205
			c-2.006,2.004-3.487,4.385-4.15,7.297c-0.682,2.996-0.438,6.063,0.593,8.948c0.904,2.532,2.565,4.503,4.422,6.392
			c-1.873-1.543-3.453-3.084-4.707-5.182c-0.893-1.494-1.487-3.154-1.864-4.85c-0.931-4.198-0.143-8.745,2.069-12.422
			c1.959-3.256,5.031-5.487,7.905-7.875c2.686-2.232,5.372-4.465,8.059-6.697c4.209-3.498,8.417-6.995,12.626-10.492
			c1.492-1.24,2.983-2.479,4.475-3.719c0.889-0.739,1.809-1.698,2.972-1.95c0.055-0.012,0.11-0.009,0.165-0.019l-7.505-24.768
			h14.315v-64.11l-31.67,7.208c-7.009-17.759-29.927-23.406-44.388-10.222c-6.384,5.82-16.006,5.82-22.391,0
			c-14.461-13.183-37.379-7.537-44.388,10.222l-31.67-7.208v64.11h14.315l-7.505,24.768c0.055,0.009,0.109,0.007,0.165,0.019
			c1.163,0.252,2.083,1.212,2.972,1.95c1.492,1.24,2.983,2.479,4.475,3.719c4.209,3.497,8.417,6.995,12.626,10.492
			c2.686,2.232,5.372,4.465,8.059,6.697c2.874,2.388,5.946,4.618,7.905,7.875c2.212,3.677,3,8.223,2.069,12.422
			c-0.376,1.696-0.971,3.356-1.864,4.85c-1.254,2.098-2.833,3.639-4.707,5.182c1.857-1.889,3.518-3.86,4.422-6.392
			c1.03-2.885,1.274-5.952,0.593-8.948c-0.662-2.912-2.143-5.292-4.15-7.297c-5.914,7.019-13.95,14.032-23.668,13.205
			c-2.097-0.178-4.044-0.762-5.95-1.653c-1.99-1.063-3.579-2.601-4.754-4.186c-3.646-4.844-4.304-11.521-4.294-17.385
			c0.009-5.132,0.588-10.283,1.555-15.33c-9.124,5.188-12.53,17.144-6.792,26.507l23.501,38.343v51.416
			c0,10.928,3.659,21.542,10.394,30.147l9.646,12.326c9.136,11.674,14.1,26.071,14.1,40.896v18.91c0,12.537,10.163,22.7,22.7,22.7
			h4.093l7.348-64.417l7.348,64.417h4.093c12.537,0,22.7-10.163,22.7-22.7v-18.91c0-14.824,4.964-29.221,14.1-40.896l9.646-12.326
			c6.735-8.606,10.394-19.219,10.394-30.147v-51.416l23.501-38.343C324.133,227.088,320.727,215.132,311.603,209.944z
			 M218.535,324.124c-0.259,1.547-0.577,3.042-0.943,4.459c-0.358,1.418-0.796,2.758-1.218,3.995
			c-0.871,2.475-1.852,4.537-2.65,5.98c-0.383,0.722-0.776,1.289-1.004,1.675c-0.245,0.387-0.402,0.593-0.402,0.593
			s-0.158-0.207-0.402-0.593c-0.228-0.386-0.621-0.954-1.004-1.675c-0.799-1.443-1.779-3.505-2.65-5.98
			c-0.422-1.237-0.86-2.577-1.218-3.995c-0.366-1.418-0.685-2.913-0.943-4.459c-0.526-3.093-0.778-6.392-0.781-9.692
			c0.013-3.299,0.268-6.599,0.798-9.692c0.515-3.093,1.291-5.98,2.163-8.454c0.868-2.475,1.845-4.537,2.639-5.98
			c0.381-0.722,0.772-1.289,0.999-1.676c0.244-0.386,0.4-0.593,0.4-0.593s0.156,0.206,0.4,0.593
			c0.226,0.387,0.618,0.954,0.999,1.676c0.794,1.443,1.771,3.505,2.639,5.98c0.872,2.474,1.649,5.361,2.163,8.454
			c0.53,3.093,0.785,6.392,0.798,9.692C219.313,317.731,219.061,321.031,218.535,324.124z M232.711,187.015
			c-0.362,3.548-0.673,7.152-0.898,10.756c-0.219,3.604-0.439,7.208-0.655,10.756c-0.195,3.548-0.478,7.04-0.726,10.418
			c-0.259,3.379-0.476,6.645-0.743,9.742c-0.257,3.097-0.5,6.026-0.724,8.729c-0.242,2.703-0.464,5.181-0.66,7.377
			c-0.196,2.196-0.377,4.111-0.543,5.688c-0.318,3.154-0.5,4.956-0.5,4.956c-0.036,0.359-0.357,0.621-0.716,0.584
			c-0.314-0.031-0.554-0.282-0.584-0.584c0,0-0.182-1.802-0.5-4.956c-0.165-1.577-0.347-3.491-0.543-5.688
			c-0.197-2.196-0.418-4.674-0.66-7.377c-0.224-2.703-0.467-5.631-0.724-8.729c-0.266-3.097-0.483-6.364-0.743-9.742
			c-0.248-3.379-0.53-6.871-0.726-10.418c-0.216-3.548-0.435-7.152-0.655-10.756c-0.225-3.604-0.537-7.208-0.898-10.756
			c-0.346-3.548-0.645-7.04-0.674-10.418c-0.028-3.379,0.15-6.645,0.461-9.742c0.281-3.097,0.656-6.026,1.092-8.729
			c0.851-5.406,1.946-9.912,2.88-13.065c0.477-1.577,0.882-2.816,1.195-3.66c0.303-0.845,0.495-1.295,0.495-1.295
			c0.153-0.359,0.567-0.526,0.926-0.374c0.175,0.074,0.305,0.212,0.374,0.374c0,0,0.191,0.451,0.495,1.295
			c0.313,0.845,0.718,2.083,1.195,3.66c0.934,3.154,2.029,7.659,2.88,13.065c0.436,2.703,0.811,5.631,1.092,8.729
			c0.311,3.097,0.489,6.364,0.461,9.742C233.356,179.976,233.057,183.468,232.711,187.015z M247.127,324.124
			c-0.259,1.547-0.577,3.042-0.943,4.459c-0.358,1.418-0.796,2.758-1.218,3.995c-0.871,2.475-1.852,4.537-2.65,5.98
			c-0.383,0.722-0.776,1.289-1.004,1.675c-0.245,0.387-0.403,0.593-0.403,0.593s-0.158-0.207-0.402-0.593
			c-0.228-0.386-0.621-0.954-1.004-1.675c-0.799-1.443-1.779-3.505-2.65-5.98c-0.422-1.237-0.86-2.577-1.218-3.995
			c-0.366-1.418-0.685-2.913-0.943-4.459c-0.526-3.093-0.778-6.392-0.781-9.692c0.013-3.299,0.268-6.599,0.798-9.692
			c0.515-3.093,1.291-5.98,2.163-8.454c0.868-2.475,1.845-4.537,2.639-5.98c0.381-0.722,0.772-1.289,0.999-1.676
			c0.244-0.386,0.4-0.593,0.4-0.593s0.156,0.206,0.4,0.593c0.226,0.387,0.618,0.954,0.999,1.676c0.794,1.443,1.771,3.505,2.639,5.98
			c0.872,2.474,1.649,5.361,2.163,8.454c0.53,3.093,0.785,6.392,0.798,9.692C247.904,317.731,247.653,321.031,247.127,324.124z"/>
	</g>
	<path style="fill:#F99C38;" d="M139.36,129.122v39.44H83.14c-2.66,0-5.29-0.13-7.89-0.37c-5.06-0.48-9.99-1.41-14.74-2.75
		c-6.88-1.94-13.39-4.74-19.41-8.28c-4.07-2.38-7.91-5.11-11.49-8.13c-1.82-1.52-3.57-3.13-5.25-4.81
		C9.079,128.941-0.284,107.743,0.007,84.364C0.576,38.552,38.638,2.042,84.453,2.042h0c0.888,0,1.338,1.067,0.719,1.704
		L55.22,34.531c-5.06,5.2-9.01,11.29-11.69,17.89c-2.68,6.59-4.09,13.71-4.09,20.97c0,16.79,7.43,31.85,19.18,42.07
		c3.54,3.08,7.48,5.72,11.73,7.83c5.13,2.57,10.7,4.35,16.58,5.22c2.69,0.4,5.44,0.61,8.24,0.61H139.36z"/>
	<path style="fill:#F99C38;" d="M453.23,85.421c0,25.55-11.52,48.4-29.65,63.64c-3.59,3.03-7.43,5.74-11.5,8.12
		c-5.98,3.52-12.44,6.3-19.26,8.24c-4.7,1.33-9.57,2.26-14.57,2.74c-2.68,0.27-5.41,0.4-8.16,0.4h-56.22v-39.44h44.19
		c2.8,0,5.56-0.21,8.25-0.61c5.85-0.87,11.41-2.64,16.52-5.19c4.25-2.11,8.19-4.75,11.74-7.83c0.99-0.86,1.96-1.76,2.89-2.69
		c10.08-10.09,16.32-24.02,16.32-39.41c0-14.51-5.66-28.46-15.78-38.86l-29.197-30.01c-0.901-0.926-0.245-2.48,1.047-2.48l0,0
		c23.02,0,43.87,9.33,58.96,24.42C443.9,41.552,453.23,62.401,453.23,85.421z"/>
	<path style="fill:#F9E17A;" d="M103.84,129.122l-28.59,39.07l-0.99,1.35v31.12h-14v-33.4c0-0.62,0.08-1.23,0.25-1.82
		c0.21-0.83,0.59-1.62,1.1-2.32l25.32-34.61c2.69,0.4,5.44,0.61,8.24,0.61H103.84z"/>
	<path style="fill:#F9E17A;" d="M392.97,166.832v33.83h-14v-31.52l-0.72-0.98l-28.89-39.04h8.7c2.8,0,5.56-0.21,8.25-0.61
		l25.28,34.16c0.61,0.82,1.03,1.76,1.23,2.75C392.92,165.881,392.97,166.352,392.97,166.832z"/>
	<path style="fill:#EF5252;" d="M70.35,123.292l-29.25,33.87c-4.07-2.38-7.91-5.11-11.49-8.13l29.01-33.57
		C62.16,118.542,66.1,121.181,70.35,123.292z"/>
	<path style="fill:#EF5252;" d="M423.58,149.062c-3.59,3.03-7.43,5.74-11.5,8.12l-29.25-33.86c4.25-2.11,8.19-4.75,11.74-7.83
		L423.58,149.062z"/>
	<path style="fill:#EF5252;" d="M66.874,191.142L66.874,191.142c-32.248,32.248-32.248,84.533,0,116.782l0,0l0,0
		C99.122,275.676,99.122,223.391,66.874,191.142L66.874,191.142z"/>
	<path style="fill:#D14242;" d="M66.874,191.143v116.781C99.122,275.676,99.122,223.391,66.874,191.143z"/>
	<path style="fill:#66C5E2;" d="M386.374,307.924L386.374,307.924c32.248-32.248,32.248-84.533,0-116.782l0,0l0,0
		C354.125,223.391,354.125,275.676,386.374,307.924L386.374,307.924z"/>
	<path style="fill:#51B7CE;" d="M386.374,307.924V191.143C354.125,223.391,354.125,275.676,386.374,307.924z"/>
</g>
<g>
</g>
<g>
</g>
<g>
</g>
<g>
</g>
<g>
</g>
<g>
</g>
<g>
</g>
<g>
</g>
<g>
</g>
<g>
</g>
<g>
</g>
<g>
</g>
<g>
</g>
<g>
</g>
<g>
</g>
</svg>
